<svg xmlns="http://www.w3.org/2000/svg" xmlns:xlink="http://www.w3.org/1999/xlink" width="1080" zoomAndPan="magnify" viewBox="0 0 810 809.999993" height="1080" preserveAspectRatio="xMidYMid meet" version="1.0"><defs><clipPath id="id1"><path d="M 114.859375 160.035156 L 656.882812 160.035156 L 656.882812 702.058594 L 114.859375 702.058594 Z M 114.859375 160.035156 " clip-rule="nonzero"/></clipPath><clipPath id="id2"><path d="M 656.882812 431.046875 C 656.882812 580.71875 535.542969 702.054688 385.871094 702.054688 C 236.195312 702.054688 114.859375 580.71875 114.859375 431.046875 C 114.859375 281.371094 236.195312 160.035156 385.871094 160.035156 C 535.546875 160.035156 656.882812 281.371094 656.882812 431.046875 Z M 656.882812 431.046875 " clip-rule="nonzero"/></clipPath></defs><rect x="-81" width="972" fill="rgb(100%, 100%, 100%)" y="-80.999999" height="971.999992" fill-opacity="1"/><rect x="-81" width="972" fill="rgb(100%, 100%, 100%)" y="-80.999999" height="971.999992" fill-opacity="1"/><rect x="-81" width="972" fill="rgb(100%, 100%, 100%)" y="-80.999999" height="971.999992" fill-opacity="1"/><rect x="-81" width="972" fill="rgb(100%, 100%, 100%)" y="-80.999999" height="971.999992" fill-opacity="1"/><g clip-path="url(#id1)"><g clip-path="url(#id2)"><path fill="rgb(100%, 100%, 100%)" d="M 114.859375 160.035156 L 656.882812 160.035156 L 656.882812 702.058594 L 114.859375 702.058594 Z M 114.859375 160.035156 " fill-opacity="1" fill-rule="nonzero"/></g></g><path stroke-linecap="butt" transform="matrix(1.140221, 0, 0, 1.140221, 365.317428, 298.137838)" fill="none" stroke-linejoin="miter" d="M 130.058838 57.231605 C 158.39421 60.448497 178.898043 67.204313 191.577188 77.492201 C 204.256334 87.783515 210.597619 102.021431 210.597619 120.212802 C 210.597619 138.743333 203.35533 153.666424 188.870751 164.978647 C 174.43756 176.246334 154.831305 182.488269 130.058838 183.707879 L 130.058838 252.612405 L 89.609589 252.612405 L 89.609589 183.707879 C 76.587857 182.683544 63.175576 180.634873 49.376171 177.561868 C 35.624728 174.4409 23.164838 170.686146 11.996502 166.297607 L 11.996502 131.257807 C 25.991181 136.865956 39.965305 141.669026 53.912023 145.670443 C 67.906702 149.668433 79.804749 151.86099 89.609589 152.251539 L 89.609589 85.101059 C 64.247873 81.103068 45.426142 74.422621 33.137546 65.059718 C 20.84895 55.645427 14.702939 42.551752 14.702939 25.775265 C 14.702939 7.392046 22.822251 -6.993182 39.060876 -17.380421 C 55.350888 -27.767659 77.783486 -32.961278 106.358669 -32.961278 L 130.058838 -32.961278 Z M 56.323835 25.484067 C 56.323835 32.5071 59.225547 38.457837 65.028971 43.33285 C 70.832395 48.207863 79.027077 51.647437 89.609589 53.648145 L 89.609589 -1.432995 C 80.195298 -1.432995 72.295242 1.002799 65.905994 5.881238 C 59.520172 10.756251 56.323835 17.292811 56.323835 25.484067 Z M 130.058838 152.251539 C 144.005556 151.86099 153.978263 148.815391 159.976962 143.107892 C 165.975661 137.403818 168.976723 129.866904 168.976723 120.504001 C 168.976723 112.117471 165.684462 104.974531 159.099939 99.071757 C 152.515417 93.172409 142.837334 89.708854 130.058838 88.684519 Z M 130.058838 152.251539 " stroke="rgb(0%, 0%, 0%)" stroke-width="11.2359" stroke-opacity="1" stroke-miterlimit="4"/><path stroke-linecap="butt" transform="matrix(0.544383, 0, 0, 0.544383, 137.368501, 307.992427)" fill="none" stroke-linejoin="miter" d="M 520.950244 174.939655 C 520.950244 227.392981 512.28217 273.144336 494.953199 312.19372 C 477.739036 351.243105 451.512373 381.688996 416.27321 403.524218 C 381.034046 425.24463 335.97872 436.108425 281.100056 436.108425 C 226.221391 436.108425 181.158889 425.24463 145.919726 403.524218 C 110.680562 381.688996 84.396495 351.128296 67.067523 311.849294 C 49.853361 272.563116 41.242692 226.696952 41.242692 174.243625 C 41.242692 121.67549 49.853361 75.98154 67.067523 37.161773 C 84.396495 -1.657994 110.917356 -31.809687 146.615755 -53.300482 C 182.314154 -74.906086 227.376656 -85.712475 281.788909 -85.712475 C 336.208338 -85.712475 381.034046 -74.906086 416.27321 -53.300482 C 451.512373 -31.809687 477.739036 -1.657994 494.953199 37.161773 C 512.28217 75.98154 520.950244 121.905108 520.950244 174.939655 Z M 146.960182 174.939655 C 146.960182 229.818319 157.587183 273.144336 178.84836 304.917705 C 200.224346 336.56909 234.308244 352.39837 281.100056 352.39837 C 328.932323 352.39837 363.360648 336.56909 384.385032 304.917705 C 405.416591 273.144336 415.928783 229.818319 415.928783 174.939655 C 415.928783 119.946181 405.416591 76.734973 384.385032 45.306031 C 363.360648 13.884264 329.391558 -1.830207 282.484938 -1.830207 C 235.226716 -1.830207 200.79839 13.884264 179.192786 45.306031 C 157.709167 76.734973 146.960182 119.946181 146.960182 174.939655 Z M 146.960182 174.939655 " stroke="rgb(0%, 0%, 0%)" stroke-width="26.61945" stroke-opacity="1" stroke-miterlimit="4"/><path stroke-linecap="butt" transform="matrix(0.178882, 0, 0, 0.178882, 489.920259, 250.913093)" fill="none" stroke-linejoin="miter" d="M 223.83864 123.122621 C 223.83864 102.66132 229.385247 88.22704 240.47846 79.797945 C 251.571674 71.237827 265.154309 66.979605 281.20453 66.979605 C 296.927195 66.979605 310.313297 71.237827 321.406511 79.797945 C 332.499724 88.22704 338.046331 102.66132 338.046331 123.122621 C 338.046331 142.994323 332.499724 157.319418 321.406511 166.097905 C 310.313297 174.767208 296.927195 179.090941 281.20453 179.090941 C 265.154309 179.090941 251.571674 174.767208 240.47846 166.097905 C 229.385247 157.319418 223.83864 142.994323 223.83864 123.122621 Z M 223.83864 382.219037 C 223.83864 361.299158 229.385247 346.733856 240.47846 338.544968 C 251.571674 330.225058 265.154309 326.054184 281.20453 326.054184 C 296.927195 326.054184 310.313297 330.225058 321.406511 338.544968 C 332.499724 346.733856 338.046331 361.299158 338.046331 382.219037 C 338.046331 401.610324 332.499724 415.826234 321.406511 424.844929 C 310.313297 433.732602 296.927195 438.187357 281.20453 438.187357 C 265.154309 438.187357 251.571674 433.732602 240.47846 424.844929 C 229.385247 415.826234 223.83864 401.610324 223.83864 382.219037 Z M 223.83864 382.219037 " stroke="rgb(0%, 0%, 0%)" stroke-width="26.61945" stroke-opacity="1" stroke-miterlimit="4"/><path stroke-linecap="butt" transform="matrix(0.178882, 0, 0, 0.178882, 489.920259, 507.77553)" fill="none" stroke-linejoin="miter" d="M 223.83864 123.127338 C 223.83864 102.666037 229.385247 88.231757 240.47846 79.802661 C 251.571674 71.242544 265.154309 66.962485 281.20453 66.962485 C 296.927195 66.962485 310.313297 71.242544 321.406511 79.802661 C 332.499724 88.231757 338.046331 102.666037 338.046331 123.127338 C 338.046331 142.99904 332.499724 157.324134 321.406511 166.102622 C 310.313297 174.771925 296.927195 179.095658 281.20453 179.095658 C 265.154309 179.095658 251.571674 174.771925 240.47846 166.102622 C 229.385247 157.324134 223.83864 142.99904 223.83864 123.127338 Z M 223.83864 382.201917 C 223.83864 361.303875 229.385247 346.738573 240.47846 338.527848 C 251.571674 330.207938 265.154309 326.058901 281.20453 326.058901 C 296.927195 326.058901 310.313297 330.207938 321.406511 338.527848 C 332.499724 346.738573 338.046331 361.303875 338.046331 382.201917 C 338.046331 401.615041 332.499724 415.830951 321.406511 424.849646 C 310.313297 433.737319 296.927195 438.192074 281.20453 438.192074 C 265.154309 438.192074 251.571674 433.737319 240.47846 424.849646 C 229.385247 415.830951 223.83864 401.615041 223.83864 382.201917 Z M 223.83864 382.201917 " stroke="rgb(0%, 0%, 0%)" stroke-width="26.61945" stroke-opacity="1" stroke-miterlimit="4"/></svg>